<svg id="Layer_1" enable-background="new 0 0 510 510" height="512" viewBox="0 0 510 510" width="512" xmlns="http://www.w3.org/2000/svg"><g><path d="m510 150-56.25-75 56.25-75h-195v270h-45v30h-90v30h-90v30h-90v150h390v-240h-45v-120zm-300 180h60v150h-60c0-18.809 0-131.422 0-150zm-90 30h60v120h-60c0-10.755 0-103.179 0-120zm-90 30h60v90h-60zm330 90h-60c0-8.004 0-172.154 0-180h60zm-15-450h105l-33.75 45 33.75 45h-105z"/><path d="m152.04 179.247 31.741 31.74 71.219-70.156v29.095h30v-79.926h-79.926v30h28.324l-49.458 48.719-31.9-31.899-127.61 127.61 21.213 21.213z"/></g></svg>